<?xml version="1.0" encoding="UTF-8"?>
<svg version="1.1" xmlns="http://www.w3.org/2000/svg" width="1920" height="1080">
<path d="M0 0 C633.6 0 1267.2 0 1920 0 C1920 356.4 1920 712.8 1920 1080 C1286.4 1080 652.8 1080 0 1080 C0 723.6 0 367.2 0 0 Z " fill="#FC0000" transform="translate(0,0)"/>
<path d="M0 0 C0.33 0 0.66 0 1 0 C1 2.64 1 5.28 1 8 C301.63 8 602.26 8 912 8 C912 209.3 912 410.6 912 618 C911.67 618 911.34 618 911 618 C911 592.59 911 567.18 911 541 C610.37 541 309.74 541 0 541 C0 362.47 0 183.94 0 0 Z " fill="#2B2A29" transform="translate(504,230)"/>
<path d="M0 0 C49.79342906 -0.20613941 99.58681488 -0.36465775 149.38058695 -0.45958797 C155.2633282 -0.47084391 161.1460686 -0.48249285 167.02880859 -0.49438477 C168.78548055 -0.49792596 168.78548055 -0.49792596 170.57764083 -0.50153869 C189.52358498 -0.54066743 208.46928257 -0.61161024 227.41508061 -0.69437516 C246.86491592 -0.77863138 266.31462238 -0.82854855 285.7646327 -0.84679645 C297.76000726 -0.85912652 309.75468485 -0.89802489 321.74984479 -0.9712482 C329.9828754 -1.01893636 338.21554732 -1.03317518 346.44870591 -1.0215124 C351.1943401 -1.01576524 355.93875913 -1.02437887 360.68417549 -1.07284927 C365.03908162 -1.11700343 369.39196852 -1.11863654 373.74697226 -1.08809005 C375.31256356 -1.08432131 376.8782866 -1.09544201 378.44362289 -1.12394864 C390.72791611 -1.33443857 398.88695592 2.1561617 409 9 C409.65309629 9.44110259 410.30619258 9.88220517 410.97907966 10.3366745 C423.14513545 18.62741873 434.29533943 27.91876426 445 38 C445.66 38.61746094 446.32 39.23492187 447 39.87109375 C452.14850438 44.84083061 456.59542654 50.37115212 461 56 C461.42829102 56.5465625 461.85658203 57.093125 462.29785156 57.65625 C493.54068421 97.88111135 507.55765323 146.36653468 506 197 C505.9690625 198.28003906 505.938125 199.56007812 505.90625 200.87890625 C503.34664846 255.07846893 475.58786411 305.62325065 436.625 342.1875 C428.01367229 349.82637466 418.62922445 356.69994928 409 363 C410.14855469 363.32871094 411.29710937 363.65742188 412.48046875 363.99609375 C429.99553625 369.25742478 443.58957831 377.99862482 452.6796875 394.390625 C453.11539062 395.25171875 453.55109375 396.1128125 454 397 C454.62261719 398.19882812 454.62261719 398.19882812 455.2578125 399.421875 C460.44078702 411.67254204 460.1351747 429.16430389 456.0625 441.75 C449.65289571 456.44695182 439.30677105 467.76094519 425 475 C424.20078125 475.41507812 423.4015625 475.83015625 422.578125 476.2578125 C410.32745796 481.44078702 392.83569611 481.1351747 380.25 477.0625 C362.94285112 469.51454195 351.86228691 457.24475643 344.86328125 439.91796875 C342.68740833 433.79374795 342.34785035 428.145263 342.4375 421.6875 C342.44555664 420.5938916 342.45361328 419.5002832 342.46191406 418.37353516 C342.74323013 406.94973024 345.8031187 397.63959313 352 388 C351.12214844 388.27263672 351.12214844 388.27263672 350.2265625 388.55078125 C344.22679157 390.30747094 338.21990357 391.58662899 332.0625 392.625 C331.34852051 392.74786377 330.63454102 392.87072754 329.89892578 392.99731445 C308.4405151 396.49026418 285.45898487 396.51369467 264 393 C263.24058105 392.88172852 262.48116211 392.76345703 261.69873047 392.64160156 C221.62034945 386.20613527 188.00643643 367.36890253 157 342 C157 307.68 157 273.36 157 238 C-143.63 238 -444.26 238 -754 238 C-754 225.11649637 -752.18983708 217.66597839 -743.5625 208.375 C-732.5367963 198.1560551 -721.84299286 196.26368037 -707.34277344 196.51513672 C-705.69884406 196.52471312 -704.05489935 196.53190317 -702.41094971 196.53691101 C-698.89465927 196.55174225 -695.37892779 196.58138805 -691.86284637 196.62237167 C-686.29804062 196.68527919 -680.73363792 196.70304463 -675.16851807 196.71292114 C-659.35246696 196.74749562 -643.53709905 196.83725281 -627.72167969 196.98242188 C-618.96841098 197.06237498 -610.21584287 197.10280456 -601.4622004 197.10065472 C-595.93353615 197.10160976 -590.40818153 197.15139351 -584.88022566 197.23777461 C-581.44007307 197.27995141 -578.00110559 197.2759755 -574.56078339 197.25911903 C-572.97079223 197.26050564 -571.3806851 197.28065799 -569.79121399 197.32134438 C-560.88511017 197.67942192 -560.88511017 197.67942192 -553.31691742 193.5712471 C-551.28709846 190.79782753 -549.62590921 188.02252989 -548 185 C-546.51874 183.23681532 -545.00822084 181.49647964 -543.4375 179.8125 C-540.70760921 176.85823462 -538.03566414 173.88305762 -535.4375 170.8125 C-531.9245548 166.80454889 -528.11862122 163.37526031 -524 160 C-522.99066406 159.1646875 -521.98132813 158.329375 -520.94140625 157.46875 C-512.41483848 150.5245212 -503.49174328 144.54101529 -494 139 C-493.35256836 138.61602051 -492.70513672 138.23204102 -492.03808594 137.83642578 C-471.92002675 126.03631353 -449.92078844 119.65735155 -427 116 C-425.89914062 115.82186768 -424.79828125 115.64373535 -423.6640625 115.46020508 C-419.79879384 114.97472857 -415.99076787 114.80419674 -412.1015625 114.76171875 C-411.35779861 114.7519249 -410.61403473 114.74213104 -409.84773254 114.73204041 C-353.90583443 114.14830202 -305.72972477 132.32978852 -265.3125 171.375 C-258.90066062 177.90082763 -252.42647241 185.28700742 -247.70455283 193.15991235 C-246.11950288 195.23146206 -246.11950288 195.23146206 -243.48578674 195.50320601 C-241.96557639 195.50548434 -241.96557639 195.50548434 -240.41465473 195.50780869 C-239.24522746 195.51925627 -238.0758002 195.53070386 -236.87093574 195.54249835 C-235.58009753 195.53473793 -234.28925933 195.52697752 -232.95930481 195.51898193 C-231.57902402 195.52485401 -230.19874975 195.53247939 -228.81848735 195.541713 C-225.01702576 195.56204365 -221.21593584 195.55740123 -217.41444457 195.54880548 C-213.31830127 195.54387514 -209.22225307 195.56192741 -205.12614441 195.57722473 C-198.02653161 195.60057635 -190.92702106 195.60928354 -183.8273716 195.60811615 C-173.56242591 195.60644935 -163.29761684 195.62675666 -153.03270753 195.65247145 C-136.37964046 195.69359057 -119.72659789 195.71687503 -103.07348633 195.72900391 C-86.89410037 195.74082582 -70.71476058 195.76100982 -54.53540039 195.79248047 C-53.53853204 195.79441657 -52.54166369 195.79635267 -51.5145872 195.79834744 C-46.51371903 195.80811177 -41.5128512 195.81804092 -36.51198351 195.82805204 C4.99198868 195.91092451 46.4959617 195.96487845 88 196 C87.99509048 194.84481369 87.99509048 194.84481369 87.99008179 193.66629028 C87.97698844 190.13430101 87.96892691 186.60231686 87.9609375 183.0703125 C87.95570068 181.85899658 87.95046387 180.64768066 87.94506836 179.3996582 C87.90588215 156.27195973 92.31216583 133.48893495 101 112 C100.00871094 112.03222656 99.01742187 112.06445312 97.99609375 112.09765625 C93.86111359 111.9966059 90.06686718 111.38878274 86.0625 110.4375 C85.3288623 110.26331543 84.59522461 110.08913086 83.83935547 109.90966797 C75.79977451 107.8735249 68.42707587 104.64040029 61 101 C60.01386719 100.52691406 59.02773437 100.05382812 58.01171875 99.56640625 C33.21248847 86.89762436 14.33363321 63.60458853 5.1875 37.5 C2.05601492 27.34383217 -0.09287677 17.8531879 -0.0300293 7.23632812 C-0.02786156 6.53993225 -0.02569382 5.84353638 -0.02346039 5.1260376 C-0.01782886 3.41734978 -0.00921245 1.70867226 0 0 Z " fill="#FB4848" transform="translate(1259,0)"/>
<path d="M0 0 C300.3 0 600.6 0 910 0 C910 89.57192374 910 89.57192374 901.5625 98.375 C900.82128906 99.16648437 900.08007812 99.95796875 899.31640625 100.7734375 C895.63917538 104.3080439 892.14816456 107.18034727 887.4375 109.1875 C886.69371094 109.51105469 885.94992187 109.83460938 885.18359375 110.16796875 C881.05181463 111.74233181 877.50953922 112.12569766 873.07846254 112.12880117 C871.85675406 112.13207336 870.63504558 112.13534555 869.37631562 112.13871691 C868.0158786 112.13730679 866.65544167 112.13580478 865.29500484 112.13422108 C863.84746815 112.13617372 862.39993199 112.13856246 860.95239666 112.14134905 C856.95182666 112.14776311 852.95127671 112.14790955 848.95070255 112.14707164 C844.60690243 112.14724086 840.26310954 112.15314388 835.91931301 112.1583125 C827.29362341 112.16765023 818.66793894 112.17156252 810.04224491 112.17383147 C799.71457257 112.17679048 789.38690707 112.1854861 779.05923831 112.19424575 C754.09467462 112.21510318 729.13010974 112.22556186 704.16553938 112.23437535 C692.35937593 112.23857988 680.553213 112.24380212 668.74704998 112.24905988 C628.3463669 112.2669509 587.94568367 112.28194781 547.54499722 112.28938007 C545.00800057 112.28985483 542.47100393 112.29033072 539.93400729 112.29080774 C538.67586474 112.29104411 537.41772219 112.29128049 536.1214541 112.29152403 C529.74690364 112.29272525 523.37235319 112.29394069 516.99780273 112.29516602 C515.73274603 112.29540617 514.46768932 112.29564632 513.16429756 112.29589374 C472.13836909 112.30378853 431.11246952 112.32722365 390.08655367 112.35972196 C346.72844743 112.39400509 303.37035811 112.41372979 260.01223809 112.41702431 C255.25423784 112.41744187 250.49623761 112.41792143 245.73823738 112.41844749 C243.98086145 112.41863228 243.98086145 112.41863228 242.18798298 112.4188208 C223.31846686 112.42115469 204.44898426 112.43682514 185.5794801 112.45728934 C166.61913602 112.47752613 147.65883228 112.48303481 128.69847941 112.47351871 C117.42960564 112.46829543 106.16086596 112.47422023 94.89201144 112.49605338 C87.3666019 112.50953373 79.84128494 112.50850897 72.31587454 112.49565142 C68.02672033 112.48873639 63.73782297 112.48814787 59.44869142 112.50521151 C55.54389708 112.52061963 51.63956594 112.51749007 47.73478528 112.49980123 C46.33366234 112.49666072 44.93250393 112.50017116 43.53142162 112.51129298 C30.00680851 112.61162714 19.84120811 109.61274964 9.875 100.25 C-13.88882081 75.89661875 0 20.20198079 0 0 Z " fill="#FDFDFD" transform="translate(505,771)"/>
<path d="M0 0 C1.27794434 0.00902344 2.55588867 0.01804687 3.87255859 0.02734375 C6.98295342 0.05062079 10.09293185 0.08331378 13.203125 0.125 C13.20735694 1.1204675 13.21158888 2.115935 13.21594906 3.14156818 C13.32102287 27.82242499 13.42993683 52.50326283 13.54246426 77.1840868 C13.59680923 89.12149712 13.65005235 101.05891016 13.70043945 112.99633789 C13.8071774 138.16403777 13.92699014 163.33158254 14.08395958 188.49902534 C14.097705 190.70396039 14.1114462 192.90889547 14.12518311 195.11383057 C14.1319416 196.19619629 14.13870009 197.27856202 14.14566338 198.39372671 C14.19157617 205.87816114 14.22850975 213.36260559 14.26153564 220.84710693 C14.30114963 229.76494141 14.354748 238.68255665 14.42684251 247.6001901 C14.46305125 252.1172416 14.49309628 256.63410209 14.50610161 261.15128517 C14.51821418 265.28534894 14.548669 269.41886267 14.59358478 273.55269647 C14.60661435 275.0412589 14.61308084 276.52989715 14.61213422 278.0185163 C14.61033133 290.97613826 16.79040338 299.49172158 25.84375 308.9296875 C31.6135132 314.298242 37.67689675 316.98211557 45.203125 319.125 C45.203125 319.785 45.203125 320.445 45.203125 321.125 C79.193125 321.125 113.183125 321.125 148.203125 321.125 C120.25202339 353.73461855 79.24339697 373.5919352 37.203125 380.125 C36.45095703 380.24359375 35.69878906 380.3621875 34.92382812 380.484375 C14.76274693 383.52755707 -5.82870661 383.21039916 -25.796875 379.125 C-27.26640625 378.82698486 -27.26640625 378.82698486 -28.765625 378.52294922 C-80.67883205 367.69417869 -124.22574423 337.2273786 -153.20507812 292.97460938 C-173.39389721 261.24932224 -182.09289609 226.59958751 -182.234375 189.25 C-182.24072968 188.39271301 -182.24708435 187.53542603 -182.25363159 186.65216064 C-182.32716642 170.70407992 -180.72538049 155.01283198 -176.109375 139.6875 C-175.85518799 138.82608398 -175.60100098 137.96466797 -175.33911133 137.07714844 C-165.84058124 105.83804379 -149.62285387 80.21088949 -127.796875 56.125 C-128.18359375 55.70089844 -128.5703125 55.27679687 -128.96875 54.83984375 C-136.71492936 46.11580512 -139.18332673 39.30426922 -139.07421875 27.60546875 C-138.70152312 22.9284011 -137.52017133 19.8918024 -134.796875 16.125 C-134.37277344 15.51140625 -133.94867188 14.8978125 -133.51171875 14.265625 C-129.47566485 9.00413969 -124.61868884 4.84962999 -117.88964844 3.83837891 C-108.80799457 3.00029974 -100.26578573 3.33189903 -92.796875 9.125 C-89.61768339 12.17089217 -87.23246413 15.4716163 -84.796875 19.125 C-84.796875 20.445 -84.796875 21.765 -84.796875 23.125 C-84.03117187 22.73344727 -84.03117187 22.73344727 -83.25 22.33398438 C-57.10779878 9.1006538 -29.5675618 -0.40328215 0 0 Z " fill="#F54646" transform="translate(490.796875,562.875)"/>
<path d="M0 0 C1.45857416 -0.00492176 2.91714226 -0.01203292 4.37569645 -0.02111396 C8.36979888 -0.03967845 12.36328655 -0.0273134 16.35737104 -0.00972402 C20.70787157 0.0038989 25.05828686 -0.01156709 29.40877956 -0.02327484 C37.0289642 -0.03977679 44.64896798 -0.03772883 52.26915455 -0.02344799 C63.60059096 -0.00227014 74.93188328 -0.00972092 86.26332542 -0.02282321 C106.50144886 -0.04527892 126.73948878 -0.03928495 146.9776123 -0.02138711 C164.68765973 -0.00582195 182.39767787 0.00003341 200.10773182 -0.00372791 C201.28231899 -0.00396471 202.45690616 -0.00420151 203.66708687 -0.00444549 C208.43506573 -0.00542041 213.20304457 -0.00644122 217.97102339 -0.00753059 C262.7004171 -0.01761423 307.42975937 0.000653 352.15914098 0.03218976 C391.90358451 0.06005235 431.64796686 0.06501322 471.39241695 0.04999638 C481.5701923 0.04617398 491.74796766 0.04237919 501.9257431 0.03882599 C503.80521639 0.03816927 503.80521639 0.03816927 505.72265884 0.03749928 C538.92814005 0.02626139 572.13361675 0.03360693 605.33909649 0.04670674 C608.911721 0.04809531 612.48434552 0.04947602 616.05697005 0.05084516 C618.426976 0.05175454 620.79698194 0.05267721 623.16698788 0.05361326 C640.86713764 0.06041101 658.56726973 0.05774718 676.26741886 0.05066586 C696.39123788 0.04270284 716.51499531 0.04925302 736.63880081 0.0748409 C747.90326152 0.08877312 759.16759824 0.09173824 770.43206098 0.07890619 C777.95426334 0.07145077 785.4763612 0.07852256 792.99854319 0.0974643 C797.28570929 0.10785816 801.57262565 0.11196322 805.85978884 0.09848576 C809.76270234 0.08635194 813.66513847 0.09272827 817.56801078 0.11364586 C818.96842337 0.11795477 820.36887684 0.11562952 821.76926093 0.10571143 C835.23455557 0.0173464 845.37087491 3.00728282 855.35750484 12.25141239 C863.9967787 21.07273991 865.29500484 29.43639592 865.29500484 41.62641239 C564.99500484 41.62641239 264.69500484 41.62641239 -44.70499516 41.62641239 C-44.70499516 28.74290876 -42.89483223 21.29239078 -34.26749516 12.00141239 C-23.89938472 2.39194418 -13.92389057 -0.13023903 0 0 Z " fill="#FEFDFD" transform="translate(549.7049951553345,196.3735876083374)"/>
<path d="M0 0 C40.6220679 0 40.6220679 0 56.6875 5.5 C57.71278809 5.84820801 58.73807617 6.19641602 59.79443359 6.55517578 C95.5812385 19.16523535 123.406003 44.94272238 140.18115234 78.75268555 C155.85063151 111.74085457 157.29681938 149.88424494 145.38769531 184.28222656 C136.98088609 207.19284402 123.03102729 228.5028432 104 244 C103.08863281 244.76054688 102.17726563 245.52109375 101.23828125 246.3046875 C70.85353948 270.78022604 38.43379828 276 0 276 C0 184.92 0 93.84 0 0 Z " fill="#FF4848" transform="translate(0,745)"/>
<path d="M0 0 C0.75645949 -0.00367669 1.51291897 -0.00735338 2.29230148 -0.01114148 C4.8347518 -0.02218106 7.37716125 -0.02602263 9.91963196 -0.02983093 C11.73958466 -0.03609541 13.55953607 -0.0427422 15.37948608 -0.04974365 C21.36331796 -0.07078943 27.3471501 -0.08114695 33.33100891 -0.09111023 C35.39092841 -0.09515768 37.45084776 -0.0992746 39.51076698 -0.10346031 C49.18889421 -0.1225136 58.8670138 -0.136744 68.54515618 -0.14507228 C79.71600568 -0.15484377 90.88665698 -0.18116046 102.05743665 -0.22157317 C110.69194732 -0.25173806 119.3264012 -0.26654154 127.96096355 -0.26985329 C133.11779973 -0.27220348 138.2744242 -0.28115991 143.43120384 -0.30631447 C148.28461919 -0.32960643 153.1376836 -0.33382385 157.99114037 -0.32355309 C159.76967028 -0.32305788 161.54821754 -0.32937387 163.32669449 -0.34310913 C165.76110167 -0.36085378 168.19425294 -0.35371008 170.62866211 -0.34057617 C171.3270294 -0.35154542 172.02539669 -0.36251466 172.74492663 -0.37381631 C178.92972624 -0.29364726 184.04588714 1.87077763 188.65522766 5.92842102 C189.10124329 6.49560852 189.54725891 7.06279602 190.00679016 7.64717102 C190.69901672 8.49795227 190.69901672 8.49795227 191.40522766 9.36592102 C193.84196161 12.90461746 194.88152035 15.53915735 194.8992157 19.86427307 C194.91201065 21.28137825 194.91201065 21.28137825 194.92506409 22.72711182 C194.92370453 24.2716378 194.92370453 24.2716378 194.9223175 25.84736633 C194.92903473 26.93725357 194.93575195 28.02714081 194.94267273 29.15005493 C194.96169341 32.75851483 194.96557924 36.36678908 194.96772766 39.97529602 C194.97415358 42.48390276 194.98088178 44.99250874 194.98789978 47.50111389 C194.99988331 52.76351627 195.0036652 58.02587155 195.00239563 63.2882843 C195.00119571 69.35726725 195.02226858 75.4258937 195.05388296 81.4947865 C195.08326805 87.3456624 195.09036947 93.19639816 195.08917618 99.04734039 C195.09153378 101.53039249 195.10036622 104.01344733 195.11584091 106.49645233 C195.13548351 109.97439935 195.12966829 113.45143522 195.11763 116.92939758 C195.12886902 117.95098465 195.14010803 118.97257172 195.15168762 120.02511597 C195.08834887 127.24326277 193.65757158 132.6407845 188.88569641 138.17060852 C188.32753235 138.61662415 187.76936829 139.06263977 187.19429016 139.52217102 C186.63870422 139.9836554 186.08311829 140.44513977 185.51069641 140.92060852 C180.82120542 143.98193944 176.51349353 144.43876179 171.02307129 144.41459656 C170.26490295 144.41912767 169.50673462 144.42365878 168.72559148 144.4283272 C166.18929793 144.44097065 163.65321913 144.43935088 161.11689758 144.43769836 C159.2966484 144.44368367 157.47640175 144.45048923 155.65615845 144.45805359 C150.71391266 144.4757211 145.77173613 144.4804093 140.82946181 144.48168516 C137.7406535 144.48310696 134.65186279 144.48737711 131.56305885 144.4926796 C120.78411873 144.51118276 110.00522806 144.5193499 99.22627258 144.51777649 C89.18390743 144.51657519 79.14175724 144.53767448 69.09944648 144.56926382 C60.47337941 144.59542974 51.84738254 144.60614364 43.2212761 144.60486567 C38.07118919 144.60435611 32.92129329 144.61003622 27.77124596 144.63122177 C22.92599509 144.65060927 18.08111735 144.65072506 13.2358532 144.63618851 C11.46055302 144.63409991 9.68522946 144.63880434 7.90996933 144.65090942 C5.4800306 144.66640149 3.05137214 144.65702869 0.62145996 144.64164734 C-0.07554309 144.65193447 -0.77254614 144.66222159 -1.4906705 144.67282045 C-7.67021512 144.58680248 -12.75138366 142.40532025 -17.39164734 138.40107727 C-17.83766296 137.84291321 -18.28367859 137.28474915 -18.74320984 136.70967102 C-19.20469421 136.15408508 -19.66617859 135.59849915 -20.14164734 135.02607727 C-22.60199428 131.25720186 -23.61647825 127.79551229 -23.64909363 123.31654358 C-23.66051392 122.37187729 -23.6719342 121.427211 -23.68370056 120.45391846 C-23.68593628 119.42940079 -23.688172 118.40488312 -23.69047546 117.34931946 C-23.70040527 116.26089249 -23.71033508 115.17246552 -23.7205658 114.05105591 C-23.74975803 110.45286014 -23.76340449 106.85484072 -23.77445984 103.25654602 C-23.78596717 100.7517649 -23.79748258 98.24698381 -23.80900574 95.74220276 C-23.82732838 91.16082126 -23.83993468 86.57949016 -23.84599924 81.9980762 C-23.85495207 75.27338193 -23.89001695 68.54950247 -23.94800043 61.82505584 C-23.99660002 55.98432225 -24.01189537 50.14385839 -24.01535034 44.30294037 C-24.02139263 41.82626663 -24.03741351 39.34959589 -24.0637207 36.8730545 C-24.09795676 33.40228107 -24.0940556 29.93347599 -24.08110046 26.46260071 C-24.09953003 25.44617996 -24.11795959 24.42975922 -24.13694763 23.38253784 C-24.05315613 16.19112823 -22.14652725 11.55300673 -17.36820984 6.14717102 C-11.84830493 1.26490876 -7.20601594 -0.00187242 0 0 Z " fill="#FE0000" transform="translate(874.3682098388672,467.8528289794922)"/>
<path d="M0 0 C73.59 0 147.18 0 223 0 C223 31.86630315 212.14193348 58.1318757 190.25 81.1875 C175.60874149 95.20817141 157.76086393 105.23428617 138 110 C136.80761719 110.29648438 135.61523438 110.59296875 134.38671875 110.8984375 C111.02147507 116.01765672 86.59080768 113.27227854 65 103 C64.37931641 102.70609375 63.75863281 102.4121875 63.11914062 102.109375 C35.98070901 89.05194409 15.16327556 65.97252606 5.1875 37.5 C1.16127445 24.44197118 0 13.92061628 0 0 Z " fill="#FF4848" transform="translate(1259,0)"/>
<path d="M0 0 C2.0623564 -0.024948 4.12480103 -0.04266352 6.18725586 -0.05737305 C7.33576523 -0.06802292 8.4842746 -0.07867279 9.66758728 -0.08964539 C14.1950686 0.03214859 18.23503595 0.92201293 22.5625 2.1875 C23.37549561 2.41598633 24.18849121 2.64447266 25.02612305 2.87988281 C51.70019478 10.58354759 73.28841473 27.85361202 87 52 C100.06660085 75.73734214 102.84026559 104.07539068 95.546875 130.1171875 C90.15532582 147.76792756 80.90770027 161.91050114 68 175 C66.81277344 176.2065625 66.81277344 176.2065625 65.6015625 177.4375 C58.86632689 183.88184504 48.50873855 192.47095661 39 194 C39.495 195.216875 39.99 196.43375 40.5 197.6875 C43.02205773 205.30171238 43.55628263 214.65221442 40.15625 222.09765625 C35.26693674 230.141898 29.15912685 235.47880418 20 238 C12.9887804 238.90269452 7.20019246 238.44455137 1 235 C-0.90508596 233.09491404 -0.12290403 230.28150154 -0.12908131 227.74640983 C-0.12616847 226.83884077 -0.12325563 225.93127171 -0.12025452 224.99620056 C-0.12110894 224.03979488 -0.12196337 223.08338921 -0.12284368 222.09800154 C-0.1245014 218.86731774 -0.11897236 215.63668494 -0.11352539 212.40600586 C-0.11324356 210.10046897 -0.11340118 207.79493198 -0.1139679 205.48939514 C-0.11425602 199.20865513 -0.10835698 192.92793403 -0.10139394 186.64719844 C-0.09516278 180.09150585 -0.09455679 173.53581289 -0.09336853 166.9801178 C-0.09077542 155.96973338 -0.08435323 144.95935562 -0.07543945 133.94897461 C-0.06626611 122.60620153 -0.0591849 111.26343034 -0.05493164 99.9206543 C-0.05466892 99.22196006 -0.05440619 98.52326581 -0.05413551 97.80339902 C-0.05283051 94.29839699 -0.05156679 90.79339495 -0.05032361 87.2883929 C-0.03995006 58.1922574 -0.02225681 29.09612879 0 0 Z " fill="#E94949" transform="translate(1416,486)"/>
<path d="M0 0 C9.74914325 7.43009822 17.2610275 17.47422605 20.0546875 29.59765625 C21.75822885 42.351603 21.67319487 54.33005304 15.49609375 65.90234375 C14.97660156 66.876875 14.45710938 67.85140625 13.921875 68.85546875 C6.68852355 81.19769081 -4.60019545 89.26187066 -18.390625 93.07421875 C-32.33649588 96.27611963 -45.97639046 93.96961832 -58.19140625 86.71484375 C-70.16529052 78.58293961 -79.05566196 67.55918365 -82.06640625 53.1640625 C-84.30956648 36.44050185 -81.01056958 22.39783474 -70.9140625 8.75390625 C-53.57032987 -12.54827829 -22.14670816 -15.20376337 0 0 Z " fill="#FF4848" transform="translate(1885.50390625,27.09765625)"/>
<path d="M0 0 C1.27530906 30.22954804 -10.69303544 56.43805635 -30.3984375 78.7109375 C-45.08984476 94.18328336 -64.27114466 105.00083635 -85 110 C-86.19238281 110.29648438 -87.38476562 110.59296875 -88.61328125 110.8984375 C-99.74409254 113.33714791 -110.64471248 113.32296982 -122 113 C-115.53468685 92.51170681 -104.43396925 73.69486435 -91 57 C-90.19433594 55.99066406 -89.38867188 54.98132812 -88.55859375 53.94140625 C-73.69926551 35.68051111 -56.54140986 20.72649475 -36.71386719 8.13574219 C-35.15662277 7.10379048 -33.67037267 5.96666846 -32.1953125 4.8203125 C-22.55307241 -2.13886948 -11.35390812 -0.65658721 0 0 Z " fill="#FF7D7D" transform="translate(1482,0)"/>
<path d="M0 0 C3.75042175 2.50028117 7.14446667 4.87237688 10.59008789 7.70410156 C16.47768701 12.52225151 22.56391632 16.79412933 29.0625 20.75 C29.75698242 21.17289307 30.45146484 21.59578613 31.16699219 22.03149414 C37.66976676 25.91621989 44.3146479 29.40019502 51 33 C51 73.92 51 114.84 51 157 C46.98529051 156.1970581 44.75264882 155.51247934 41.25 153.75 C36.56125015 151.58451312 31.86453767 149.83256793 26.9375 148.3125 C26.01275879 148.00940918 26.01275879 148.00940918 25.06933594 147.70019531 C16.76505629 145.23799893 8.86456947 144.98495216 0 144 C0 96.48 0 48.96 0 0 Z " fill="#E10000" transform="translate(1416,342)"/>
<path d="M0 0 C21.15456382 12.08832218 37.47297633 32.66858679 44.28515625 56.22265625 C51.87733845 84.68275409 48.76432265 113.58790907 34.16015625 139.23046875 C25.62542024 152.72198395 13.84248674 165.09000758 0 173 C0 115.91 0 58.82 0 0 Z " fill="#FE4848" transform="translate(1467,501)"/>
<path d="M0 0 C8.2190304 5.97477436 13.69523858 13.30291258 16.1875 23.25 C17.82736799 35.30177258 16.39753941 45.92044555 9.23828125 55.9921875 C2.81747653 63.76170703 -5.75939633 69.51670626 -15.8125 71.25 C-27.54990497 72.25159189 -37.1188992 69.86223724 -46.74609375 63.0078125 C-53.83498201 56.97756729 -59.05370917 48.43844929 -60.8125 39.25 C-61.4649665 30.15825373 -61.28430525 22.380555 -56.8125 14.25 C-56.41160156 13.48171875 -56.01070312 12.7134375 -55.59765625 11.921875 C-50.31584533 2.91983204 -41.47338755 -2.99142214 -31.625 -6.125 C-20.34857032 -8.63087326 -9.72634468 -6.03363077 0 0 Z " fill="#FF4848" transform="translate(213.8125,908.75)"/>
<path d="M0 0 C245.19 0 490.38 0 743 0 C743 1.98 743 3.96 743 6 C497.81 6 252.62 6 0 6 C0 4.02 0 2.04 0 0 Z " fill="#FE0909" transform="translate(639,822)"/>
<path d="M0 0 C37.62 0 75.24 0 114 0 C111.99033958 14.06762297 103.98173682 25.69659708 92.75 34.3125 C83.21151078 40.7912228 73.53778977 45.049485 62 46 C60.91074219 46.09410156 59.82148437 46.18820312 58.69921875 46.28515625 C42.7886258 46.98788912 28.80941322 40.96626193 16.8125 30.75 C8.78193271 23.21032946 3.34819944 14.52291253 0 4 C0 2.68 0 1.36 0 0 Z " fill="#E44848" transform="translate(749,883)"/>
<path d="M0 0 C5.46436079 3.26744572 8.83493289 7.72114933 12.3125 12.9375 C12.3125 14.2575 12.3125 15.5775 12.3125 16.9375 C13.15554688 16.49277344 13.99859375 16.04804687 14.8671875 15.58984375 C15.96289062 15.02394531 17.05859375 14.45804688 18.1875 13.875 C19.27804687 13.30652344 20.36859375 12.73804688 21.4921875 12.15234375 C22.42289062 11.75144531 23.35359375 11.35054687 24.3125 10.9375 C25.3025 11.4325 25.3025 11.4325 26.3125 11.9375 C24.85712432 12.77598804 23.39809627 13.60813934 21.9375 14.4375 C21.12539063 14.9015625 20.31328125 15.365625 19.4765625 15.84375 C17.3125 16.9375 17.3125 16.9375 15.3125 16.9375 C15.27382813 18.40509766 15.27382813 18.40509766 15.234375 19.90234375 C14.75234391 31.04383516 12.9844757 38.85681333 5.24609375 47.2109375 C-1.33435877 53.08681632 -8.95079302 54.38425034 -17.5234375 54.26953125 C-25.9858082 53.38150469 -31.82281652 48.69435742 -37.05859375 42.2421875 C-42.3523938 34.75215866 -42.62744319 26.96729135 -41.6875 17.9375 C-40.81168549 14.85483083 -39.55837656 12.5252545 -37.6875 9.9375 C-37.26339844 9.32390625 -36.83929688 8.7103125 -36.40234375 8.078125 C-27.78267418 -3.15865872 -12.81672909 -5.84520524 0 0 Z " fill="#FF4848" transform="translate(393.6875,569.0625)"/>
<path d="M0 0 C5.76943121 3.65430411 10.72756437 9.43659936 12.89453125 15.9375 C13.56398875 25.80376705 13.76697707 33.84063127 7.38671875 41.82421875 C2.43379836 47.31850485 -2.9082131 50.43794933 -10.2890625 51.31640625 C-17.20538936 51.56427461 -22.39241618 50.9209128 -28.10546875 46.9375 C-29.15734375 46.215625 -30.20921875 45.49375 -31.29296875 44.75 C-37.19201678 38.85095197 -40.16622721 32.10364223 -40.48046875 23.8125 C-40.38454802 16.61844533 -38.05149174 11.0877028 -33.1328125 5.828125 C-24.09208193 -2.35077892 -11.65134426 -3.98637187 0 0 Z " fill="#E94848" transform="translate(1265.10546875,884.0625)"/>
<path d="M0 0 C6.3182547 4.16910858 10.843558 9.62955768 13 16.9375 C14.07156149 25.3433046 12.92984486 31.97114493 8 38.9375 C3.45548716 44.04333034 -1.87821727 47.41206028 -8.7578125 48.2890625 C-17.08464033 48.69369096 -23.50937271 46.84899776 -29.84765625 41.328125 C-36.00932166 34.727422 -37.62664284 27.72818081 -37.3359375 18.828125 C-36.41753777 10.92561568 -32.14650823 6.69149501 -26.31640625 1.6015625 C-18.94006946 -3.69745853 -8.060157 -4.167156 0 0 Z " fill="#FF4848" transform="translate(266,865.0625)"/>
<path d="M0 0 C102.63 0 205.26 0 311 0 C311 1.98 311 3.96 311 6 C208.37 6 105.74 6 0 6 C0 4.02 0 2.04 0 0 Z " fill="#2B2A29" transform="translate(1071,822)"/>
<path d="M0 0 C4.32130129 1.44043376 7.28419257 2.56598832 11.0625 4.80078125 C12.49033813 5.63947754 12.49033813 5.63947754 13.94702148 6.49511719 C14.95450439 7.09485352 15.9619873 7.69458984 17 8.3125 C18.56633179 9.23724121 18.56633179 9.23724121 20.16430664 10.18066406 C22.34531778 11.46876481 24.52506929 12.75900052 26.70361328 14.05126953 C29.93881698 15.96383033 33.18421622 17.85773294 36.43359375 19.74609375 C38.43496985 20.91393566 40.43627489 22.08189938 42.4375 23.25 C43.38431641 23.79825439 44.33113281 24.34650879 45.30664062 24.91137695 C46.17353516 25.42015381 47.04042969 25.92893066 47.93359375 26.453125 C48.69728271 26.89817383 49.46097168 27.34322266 50.24780273 27.80175781 C52 29 52 29 53 31 C45.00513261 35.67548217 37.00455354 40.34112413 29 45 C28.40068665 45.34893311 27.80137329 45.69786621 27.18389893 46.05737305 C23.59574816 48.14602858 20.0056652 50.23130109 16.4130249 52.31222534 C14.70543817 53.30210137 12.99943842 54.29471336 11.29345703 55.28735352 C10.2517334 55.88990967 9.21000977 56.49246582 8.13671875 57.11328125 C7.21592529 57.64735596 6.29513184 58.18143066 5.34643555 58.73168945 C3 60 3 60 0 61 C0 40.87 0 20.74 0 0 Z " fill="#FBFBFB" transform="translate(551,795)"/>
<path d="M0 0 C6.22962425 2.80212828 11.08009399 8.01475444 13.6484375 14.34765625 C14.42729632 20.86174819 14.25179112 27.6920615 10.6484375 33.34765625 C6.2249807 38.19239465 1.69547584 41.82740917 -4.96484375 42.68359375 C-12.32734076 42.79014219 -17.59084383 41.80684736 -23.10546875 36.734375 C-28.55268584 30.81462823 -29.89253478 25.049696 -29.73046875 17.09765625 C-28.92917302 11.28206661 -25.60776592 7.25289537 -21.2890625 3.47265625 C-14.69641162 -1.29649545 -7.97173496 -2.21142814 0 0 Z " fill="#FF4848" transform="translate(1779.3515625,66.65234375)"/>
<path d="M0 0 C4.00712283 1.60284913 7.4065456 3.27570049 11.12109375 5.4140625 C11.70230484 5.74739594 12.28351593 6.08072937 12.88233948 6.42416382 C14.73582902 7.48806505 16.58671132 8.5564086 18.4375 9.625 C19.64500825 10.31931319 20.8526893 11.01332595 22.06054688 11.70703125 C24.47463122 13.0939313 26.8877716 14.48245345 29.30029297 15.87207031 C35.19146264 19.26329277 41.0962309 22.63077713 47 26 C47 26.66 47 27.32 47 28 C46.34741211 28.36125977 45.69482422 28.72251953 45.02246094 29.09472656 C32.55865381 36.00548197 20.15344411 42.96125997 8.02050781 50.44238281 C7.2519043 50.91256836 6.48330078 51.38275391 5.69140625 51.8671875 C5.02310791 52.28081543 4.35480957 52.69444336 3.66625977 53.12060547 C2 54 2 54 0 54 C0 36.18 0 18.36 0 0 Z " fill="#FEF7F7" transform="translate(936,513)"/>
<path d="M0 0 C1.8785425 0.0077306 1.8785425 0.0077306 3.79503536 0.01561737 C41.22795202 0.16923037 78.66090843 0.31033225 116.09389883 0.44463104 C124.59844916 0.47516672 133.10299798 0.50604787 141.60754395 0.53777695 C166.32037159 0.62990788 191.03321228 0.71649714 215.74609375 0.79296875 C216.66211205 0.79580422 217.57813036 0.79863969 218.52190679 0.80156109 C279.5359655 0.98939162 340.54900448 1.01110179 401.56327769 0.93711577 C412.23256818 0.92430048 422.90186068 0.91398039 433.57115395 0.90378945 C443.07095529 0.89463507 452.57075598 0.88483221 462.07055664 0.875 C463.10876898 0.87393557 464.14698132 0.87287115 465.21665464 0.87177446 C490.1458368 0.84608618 515.07493699 0.80907964 540.0040585 0.74778006 C556.76329321 0.70671682 573.52250495 0.67923614 590.28178436 0.66511887 C600.30525545 0.65611487 610.32854619 0.63515564 620.35195156 0.59754466 C627.080489 0.57333976 633.80894747 0.56361093 640.5375279 0.56545753 C644.37836089 0.56606197 648.21889127 0.56030263 652.05965793 0.53664494 C656.20906128 0.51121351 660.3578521 0.5170557 664.50732422 0.52571106 C665.69440084 0.51337742 666.88147746 0.50104377 668.1045261 0.48833638 C676.62938842 0.5442261 686.7684208 1.17993334 693.36916924 7.13877231 C693.90734339 7.75297745 694.44551754 8.36718259 695 9 C689 7 689 7 687.09618453 6.24130995 C680.75498305 3.83404224 674.99129803 3.57569604 668.25714016 3.61523914 C667.09697308 3.61008924 665.936806 3.60493933 664.74148235 3.59963337 C661.52954547 3.58838681 658.31794093 3.59048091 655.1060042 3.59826221 C651.60866157 3.60341887 648.11137223 3.5911606 644.61404616 3.58113068 C638.48751128 3.56594941 632.3610469 3.56183852 626.23449516 3.56500816 C617.1245827 3.56967097 608.01475001 3.55717608 598.90485328 3.54117843 C583.57990511 3.51475203 568.25497503 3.50222117 552.93000603 3.49761391 C537.75671138 3.49300682 522.58344184 3.4822211 507.41015816 3.46318626 C505.99493291 3.46141607 505.99493291 3.46141607 504.55111725 3.45961012 C499.75962717 3.45358469 494.96813725 3.44744889 490.17664737 3.44127061 C456.23992324 3.39771016 422.30319971 3.36799881 388.36645508 3.34643555 C355.39769591 3.32545564 322.42895169 3.29820039 289.46020508 3.26245117 C288.44393674 3.26135169 287.4276684 3.26025222 286.38060405 3.25911942 C276.17480515 3.24807107 265.96900639 3.23689516 255.76320774 3.2256258 C234.97288166 3.20267178 214.18255471 3.18056913 193.39222717 3.15898132 C192.43632483 3.1579877 191.48042248 3.15699409 190.49555339 3.15597036 C126.6637145 3.08971752 62.83185808 3.0433111 -1 3 C-0.67 2.01 -0.34 1.02 0 0 Z " fill="#CB3838" transform="translate(704,194)"/>
<path d="M0 0 C5.2482422 2.17199213 8.49301893 4.84385087 11 10 C11.90451903 15.53264138 12.06120253 21.2274621 8.9375 26.0625 C5.59301809 29.90350164 1.81058484 31.60759723 -3.23828125 32.3125 C-8.64405246 32.60323055 -11.8315536 31.68374333 -16 28 C-20.04999401 22.63649442 -21.56217075 18.746049 -21 12 C-16.98291491 2.6803626 -10.33022133 -2.01762135 0 0 Z " fill="#ED4848" transform="translate(1449,374)"/>
<path d="M0 0 C0.59945789 10.77359032 -0.44349822 17.83941769 -7.25 26.3125 C-12.27563942 31.73802901 -18.39247034 34.5984867 -25.734375 35.23828125 C-32.7114334 35.40999642 -37.03863438 34.66853269 -43 31 C-39.2315602 22.0873408 -9.79811565 -3.26603855 0 0 Z " fill="#FF7D7D" transform="translate(408,588)"/>
<path d="M0 0 C125.07 0 250.14 0 379 0 C374.66357885 3.25231586 373.82746829 3.37399333 368.68811607 3.36635017 C367.38207873 3.37170662 366.07604138 3.37706307 364.73042715 3.38258183 C363.27758896 3.37333161 361.8247525 3.36380588 360.37191772 3.35403442 C358.83133932 3.35462636 357.29076096 3.3565397 355.75018561 3.35966384 C351.5102061 3.36444144 347.27046123 3.35047553 343.03052044 3.33353782 C338.46064404 3.3185531 333.89077343 3.32088021 329.32087708 3.32116699 C321.40059403 3.31932764 313.4803883 3.30659834 305.56013107 3.28662491 C294.10654048 3.25784426 282.65298453 3.24653616 271.19936223 3.23971556 C252.61465708 3.22826566 234.02999154 3.20414484 215.4453125 3.17138672 C197.39486082 3.13961077 179.34441188 3.11128273 161.29394531 3.08935547 C160.18197766 3.0880019 159.07001001 3.08664832 157.92434637 3.08525373 C145.7929984 3.07062245 133.66164951 3.05738754 121.53029823 3.04582024 C120.46508975 3.04480185 119.39988127 3.04378347 118.30239374 3.04273423 C114.04497335 3.03868288 109.78755295 3.03464669 105.53013237 3.03078984 C93.04801461 3.01944708 80.56592049 3.00371082 68.08381952 2.98014401 C60.25842185 2.96547078 52.43302415 2.95398594 44.60761784 2.94503821 C40.08693757 2.93970237 35.56627587 2.93261728 31.04560661 2.92116928 C26.91304799 2.91070904 22.78050908 2.90475147 18.64793809 2.90246294 C17.14735603 2.90079325 15.64677478 2.89739305 14.14620094 2.89215316 C12.11754483 2.88529529 10.08886934 2.88511229 8.06020164 2.88533211 C6.93004391 2.88332617 5.79988618 2.88132023 4.63548124 2.87925351 C2.020999 2.82041339 2.020999 2.82041339 0 4 C0 2.68 0 1.36 0 0 Z " fill="#B50000" transform="translate(863,883)"/>
<path d="M0 0 C6.24038623 2.36704305 11.40167377 5.48886813 15.04296875 11.23828125 C15.04296875 11.89828125 15.04296875 12.55828125 15.04296875 13.23828125 C2.53622218 19.03353195 -9.16315346 21.74293532 -22.95703125 21.23828125 C-22.95703125 14.96828125 -22.95703125 8.69828125 -22.95703125 2.23828125 C-15.29175138 -1.59435868 -8.36638009 -2.15514414 0 0 Z " fill="#EA7E7E" transform="translate(1438.95703125,667.76171875)"/>
<path d="M0 0 C4.32130129 1.44043376 7.28419257 2.56598832 11.0625 4.80078125 C12.49033813 5.63947754 12.49033813 5.63947754 13.94702148 6.49511719 C14.95450439 7.09485352 15.9619873 7.69458984 17 8.3125 C18.56633179 9.23724121 18.56633179 9.23724121 20.16430664 10.18066406 C22.34531778 11.46876481 24.52506929 12.75900052 26.70361328 14.05126953 C29.93881698 15.96383033 33.18421622 17.85773294 36.43359375 19.74609375 C38.43496985 20.91393566 40.43627489 22.08189938 42.4375 23.25 C43.38431641 23.79825439 44.33113281 24.34650879 45.30664062 24.91137695 C46.17353516 25.42015381 47.04042969 25.92893066 47.93359375 26.453125 C48.69728271 26.89817383 49.46097168 27.34322266 50.24780273 27.80175781 C52 29 52 29 53 31 C45.00513261 35.67548217 37.00455354 40.34112413 29 45 C28.40068665 45.34893311 27.80137329 45.69786621 27.18389893 46.05737305 C23.59574816 48.14602858 20.0056652 50.23130109 16.4130249 52.31222534 C14.70543817 53.30210137 12.99943842 54.29471336 11.29345703 55.28735352 C10.2517334 55.88990967 9.21000977 56.49246582 8.13671875 57.11328125 C7.21592529 57.64735596 6.29513184 58.18143066 5.34643555 58.73168945 C3 60 3 60 0 61 C0 40.87 0 20.74 0 0 Z M4 6 C4 21.84 4 37.68 4 54 C8.441248 52.519584 11.51175641 51.29877427 15.4140625 48.98828125 C16.42339844 48.39466797 17.43273437 47.80105469 18.47265625 47.18945312 C19.51292969 46.57005859 20.55320312 45.95066406 21.625 45.3125 C23.6796875 44.10026042 25.734375 42.88802083 27.7890625 41.67578125 C29.30741699 40.77593506 29.30741699 40.77593506 30.85644531 39.85791016 C35.89095018 36.88240674 40.94527428 33.94098255 46 31 C43.11613272 27.87397269 40.28501976 25.83448294 36.5625 23.79296875 C35.50160156 23.20580078 34.44070313 22.61863281 33.34765625 22.01367188 C32.24292969 21.41103516 31.13820313 20.80839844 30 20.1875 C27.83272754 18.99458953 25.66605919 17.80058083 23.5 16.60546875 C22.43265625 16.01813965 21.3653125 15.43081055 20.265625 14.82568359 C15.89063438 12.37979694 11.57514298 9.8376933 7.265625 7.27856445 C5.28843391 5.91808788 5.28843391 5.91808788 4 6 Z " fill="#2A2928" transform="translate(551,795)"/>
<path d="M0 0 C4.11639609 1.77753468 6.76553623 4.11037788 9 8 C9.84586159 13.10934578 9.57987883 16.88023399 7.1875 21.5 C4.77719208 24.25463762 3.17917103 25.85944865 -0.5234375 26.30078125 C-10.43571558 26.34151664 -10.43571558 26.34151664 -14 23 C-17.03217022 18.50402346 -17.95138112 14.29602155 -17 9 C-13.19870514 1.53819898 -8.16065072 -1.21082826 0 0 Z " fill="#FF4949" transform="translate(195,865)"/>
<path d="M0 0 C3.92713874 3.27261562 6.00767473 6.20901377 6.75 11.3125 C6.11189009 15.85903312 4.89845246 18.12302569 2.25 21.875 C-2.11246073 24.6595494 -6.74365026 24.64885217 -11.75 23.875 C-15.19072683 22.17570226 -17.23634339 19.78557308 -19.125 16.4375 C-20.26376089 11.76858034 -20.34999457 9.00832307 -18.0625 4.6875 C-13.07906585 -1.37343342 -7.29194162 -2.98306703 0 0 Z " fill="#FF4848" transform="translate(1562.75,411.125)"/>
<path d="M0 0 C3.49291032 2.39737429 5.54933193 5.11568493 6.5390625 9.25390625 C6.80614822 13.40779211 6.28328643 16.19986909 3.6875 19.5 C0.01695995 22.91445586 -2.95278995 23.39610487 -7.9296875 23.359375 C-11.6233571 22.71820971 -13.42218955 20.64068388 -16 18 C-17.85110583 14.29778834 -17.46454795 10.04093083 -17 6 C-13.00135232 -0.85482459 -7.35015317 -2.34849454 0 0 Z " fill="#FF4848" transform="translate(1288,951)"/>
<path d="M0 0 C5.61 0 11.22 0 17 0 C17.13292401 25.669079 17.26345592 51.33816905 17.39115143 77.00727463 C17.45055174 88.93682198 17.51068326 100.86636466 17.57275391 112.79589844 C17.88310141 172.53109902 18.08190767 232.26395549 18 292 C10.34277979 277.65835915 14.94274816 249.95697365 14.96289062 233.95117188 C14.96427699 231.8479996 14.96562128 229.7448273 14.96692657 227.64165497 C14.98581043 205.53878963 15.08832731 183.43631521 15.20192909 161.33376884 C15.23082484 155.6605458 15.25833166 149.987316 15.28601074 144.31408691 C15.33819405 133.65901608 15.39155489 123.00395151 15.4453826 112.34888887 C15.50679151 100.18114367 15.566821 88.01339176 15.62675762 75.84563923 C15.74968036 50.89708529 15.87430957 25.94854014 16 1 C10.72 1 5.44 1 0 1 C0 0.67 0 0.34 0 0 Z " fill="#D53938" transform="translate(487,563)"/>
<path d="M0 0 C1.58941406 0.01353516 1.58941406 0.01353516 3.2109375 0.02734375 C4.00757813 0.03894531 4.80421875 0.05054688 5.625 0.0625 C5.625 0.7225 5.625 1.3825 5.625 2.0625 C-7.07009331 9.08847897 -19.63551447 15.54549764 -33.3125 20.4375 C-34.38943115 20.82413818 -35.4663623 21.21077637 -36.57592773 21.60913086 C-42.16044894 23.53487462 -42.16044894 23.53487462 -44.375 24.0625 C-45.035 23.7325 -45.695 23.4025 -46.375 23.0625 C-37.1719312 10.78058637 -24.25499851 3.51246078 -9.36328125 0.44140625 C-6.20682349 0.04117566 -3.18036961 -0.03533744 0 0 Z " fill="#FF7D7D" transform="translate(1659.375,362.9375)"/>
<path d="M0 0 C1.32 0.99 2.64 1.98 4 3 C3.34 3 2.68 3 2 3 C2 49.2 2 95.4 2 143 C3.98 143 5.96 143 8 143 C8 143.33 8 143.66 8 144 C5.36 144 2.72 144 0 144 C0 96.48 0 48.96 0 0 Z " fill="#CB0101" transform="translate(1416,342)"/>
<path d="M0 0 C5.09641312 1.69880437 8.51562998 3.30937799 13 6 C10 8 10 8 5 7 C4.67 22.51 4.34 38.02 4 54 C5.485 53.505 5.485 53.505 7 53 C7.3125 55.3125 7.3125 55.3125 7 58 C4.6167054 59.81883009 3.04181663 61 0 61 C0 40.87 0 20.74 0 0 Z " fill="#2D2C2B" transform="translate(551,795)"/>
<path d="M0 0 C2.3515625 0.48046875 2.3515625 0.48046875 4.9765625 2.54296875 C6.69907103 6.22287334 6.92628331 8.45742308 6.3515625 12.48046875 C4.55593845 15.23375896 3.29901328 17.00674336 0.3515625 18.48046875 C-3.74641007 19.03928319 -5.41716073 18.61752165 -9.0234375 16.48046875 C-12.08795363 12.9781646 -12.08795363 12.9781646 -12.2734375 9.48046875 C-12.0198554 6.69106562 -11.4699958 5.09114141 -10.2734375 2.48046875 C-6.79586355 -0.1691114 -4.29398808 -0.23433268 0 0 Z " fill="#E14949" transform="translate(1433.6484375,407.51953125)"/>
<path d="M0 0 C40.26 0 80.52 0 122 0 C118.80141769 2.13238821 118.01635555 2.24864896 114.34931946 2.24050903 C112.91693436 2.24463303 112.91693436 2.24463303 111.45561218 2.24884033 C110.40976456 2.24164978 109.36391693 2.23445923 108.28637695 2.22705078 C107.1837854 2.22734283 106.08119385 2.22763489 104.94519043 2.22793579 C101.29280792 2.22654003 97.64062822 2.21096702 93.98828125 2.1953125 C91.45908215 2.19158325 88.9298816 2.18873586 86.40068054 2.18673706 C80.41898278 2.17987533 74.43737237 2.16410489 68.45570964 2.14403808 C61.64562274 2.12168777 54.83553236 2.11068784 48.02541792 2.10064721 C34.01690482 2.07973887 20.00845641 2.04455747 6 2 C5.67 2.66 5.34 3.32 5 4 C3.35 2.68 1.7 1.36 0 0 Z " fill="#B60000" transform="translate(1262,883)"/>
<path d="M0 0 C37.62 0 75.24 0 114 0 C113.67 1.65 113.34 3.3 113 5 C112.505 3.515 112.505 3.515 112 2 C75.04 2.33 38.08 2.66 0 3 C0 2.01 0 1.02 0 0 Z " fill="#C63F3F" transform="translate(749,883)"/>
<path d="M0 0 C0.99 0 1.98 0 3 0 C3 27.72 3 55.44 3 84 C1.04777611 80.09555222 0.71613851 78.49936295 0.5859375 74.296875 C0.54718506 73.1109375 0.50843262 71.925 0.46850586 70.703125 C0.43764893 69.39859375 0.40679199 68.0940625 0.375 66.75 C0.3366793 65.37499974 0.29834895 63.99999975 0.26000977 62.625 C-0.27164722 41.75779157 -0.08496161 20.87179916 0 0 Z " fill="#C04949" transform="translate(502,771)"/>
<path d="M0 0 C3.89688812 3.89688812 4.09857098 10.14795198 4.21118164 15.47583008 C4.20425335 17.07380597 4.18669456 18.67176072 4.16015625 20.26953125 C4.15454681 21.16023819 4.14893738 22.05094513 4.14315796 22.96864319 C4.13066457 24.90301517 4.1139595 26.83736362 4.09347534 28.77166748 C4.03955379 34.06511747 4.02359714 39.35866245 4.0078125 44.65234375 C4.00408127 45.78230774 4.00035004 46.91227173 3.99650574 48.07647705 C3.96787117 62.00119463 4.1753654 75.92204261 4.40482712 89.84441757 C4.4375338 91.87710063 4.46791253 93.90980601 4.49758911 95.9425354 C4.55434694 99.7508603 4.61778921 103.55900943 4.68359375 107.3671875 C4.70030121 108.51703629 4.71700867 109.66688507 4.73422241 110.85157776 C4.75417267 111.8994194 4.77412292 112.94726105 4.79467773 114.02685547 C4.81022202 114.94352997 4.8257663 115.86020447 4.84178162 116.80465698 C4.86273381 119.04360266 4.86273381 119.04360266 6 121 C4.68 120.34 3.36 119.68 2 119 C1.98969254 117.73038925 1.97938507 116.4607785 1.96876526 115.1526947 C1.87062006 103.13423307 1.76785093 91.1158185 1.66066074 79.09743404 C1.60571118 72.92003452 1.55233901 66.74263009 1.50268555 60.56518555 C1.4546256 54.59344845 1.40227352 48.62176244 1.34705925 42.65008736 C1.3268225 40.38218028 1.30808117 38.11425931 1.29092598 35.84632683 C1.19927478 23.86188876 1.02074605 11.946262 0 0 Z " fill="#CE3838" transform="translate(1414,223)"/>
<path d="M0 0 C0.99 0.33 1.98 0.66 3 1 C2.67 19.81 2.34 38.62 2 58 C2.66 58.33 3.32 58.66 4 59 C2.68 59.66 1.36 60.32 0 61 C0 40.87 0 20.74 0 0 Z " fill="#373635" transform="translate(551,795)"/>
<path d="M0 0 C33 0 66 0 100 0 C93.25 7.875 93.25 7.875 90 10 C91.61695475 6.36185181 93.35438887 4.30701392 96 1 C64.32 1 32.64 1 0 1 C0 0.67 0 0.34 0 0 Z " fill="#CC3737" transform="translate(539,884)"/>
<path d="M0 0 C3 3 3 3 3.32279968 5.14506531 C3.29837296 5.97335342 3.27394623 6.80164154 3.2487793 7.6550293 C3.22853195 8.59577805 3.20828461 9.53652679 3.18742371 10.50578308 C3.15006607 11.51836685 3.11270844 12.53095062 3.07421875 13.57421875 C3.04777786 14.61318802 3.02133698 15.65215729 2.99409485 16.72261047 C2.90624322 20.04481901 2.79712305 23.36594543 2.6875 26.6875 C2.62425057 28.93811212 2.56238421 31.18876357 2.50195312 33.43945312 C2.35068826 38.96019222 2.18195176 44.48019172 2 50 C1.01 50.495 1.01 50.495 0 51 C0 34.17 0 17.34 0 0 Z " fill="#CB0000" transform="translate(1416,720)"/>
<path d="M0 0 C3.625 0.375 3.625 0.375 7 1 C8.33157895 6.44736842 8.33157895 6.44736842 6.875 8.875 C4.40522151 10.3568671 2.83386167 10.3633156 0 10 C-2 8 -2 8 -2.25 5 C-2 2 -2 2 0 0 Z " fill="#F94747" transform="translate(1456,447)"/>
<path d="M0 0 C3.625 0.375 3.625 0.375 7 1 C7.625 3.875 7.625 3.875 8 7 C6 9 6 9 3 9.25 C0 9 0 9 -2 7 C-2.25 4.5 -2.25 4.5 -2 2 C-1.34 1.34 -0.68 0.68 0 0 Z " fill="#FC4848" transform="translate(1294,925)"/>
<path d="M0 0 C0.66 0.33 1.32 0.66 2 1 C1.50628906 1.46148437 1.01257812 1.92296875 0.50390625 2.3984375 C-4.15928628 7.14607416 -5.79629766 10.42354979 -6.02734375 17.09375 C-6.01832031 17.7228125 -6.00929688 18.351875 -6 19 C-8 17 -8 17 -8.375 13.8125 C-7.83812326 8.35425318 -5.99879918 4.72118819 -1.75 1.0625 C-1.1725 0.711875 -0.595 0.36125 0 0 Z " fill="#E04646" transform="translate(1436,376)"/>
<path d="M0 0 C4.87664009 -0.34833144 7.77050005 0.58314288 12 3 C11.67 3.99 11.34 4.98 11 6 C6.48986609 5.46939601 3.61621781 3.69113883 0 1 C0 0.67 0 0.34 0 0 Z " fill="#272625" transform="translate(559,802)"/>
<path d="M0 0 C-2.77280706 3.08089673 -5.06326356 4.68775452 -9 6 C-8.625 3.5625 -8.625 3.5625 -8 1 C-5.29120665 -0.35439668 -2.99066732 -0.06501451 0 0 Z " fill="#252423" transform="translate(567,846)"/>
<path d="M0 0 C2.83187553 2.83187553 3.41788129 6.14622678 4 10 C3.625 13 3.625 13 3 15 C2.34 15 1.68 15 1 15 C0.67 10.05 0.34 5.1 0 0 Z " fill="#CA4242" transform="translate(1414,223)"/>
<path d="M0 0 C2.475 0.99 2.475 0.99 5 2 C5 3.65 5 5.3 5 7 C2.36 5.68 -0.28 4.36 -3 3 C-2.01 2.01 -1.02 1.02 0 0 Z " fill="#302F2E" transform="translate(590,817)"/>
<path d="M0 0 C-2.125 2.0625 -2.125 2.0625 -5 4 C-8.3125 3.75 -8.3125 3.75 -11 3 C-4.33333333 -1.44444444 -4.33333333 -1.44444444 0 0 Z " fill="#31302F" transform="translate(573,843)"/>
</svg>
